<svg width="193" height="193" viewBox="0 0 193 193" fill="none"
    xmlns="http://www.w3.org/2000/svg">
    <path fill-rule="evenodd" clip-rule="evenodd" d="M192.748 97.9417V94.6853C192.72 94.149 192.675 93.6467 192.612 93.1931L192.58 92.9459L192.32 92.7921C188.239 90.3744 182.986 88.9642 177.719 88.852C177.601 88.1584 176.976 83.2741 176.877 82.584C181.882 81.1697 186.642 78.459 189.987 74.9943L190.174 74.808L190.135 74.5759C189.893 72.6854 189.153 70.1153 188.517 68.5317L188.413 68.2698L188.143 68.2154C183.59 66.9292 178.09 66.9564 173.093 68.2154C172.747 67.5891 170.935 63.1153 170.664 62.4399C175.121 59.7182 179.008 55.9013 181.372 51.7786L181.528 51.5518L181.372 51.2479C180.727 49.6745 179.402 47.3853 178.247 45.9067L178.09 45.6958H177.872C173.112 45.6093 167.861 47.0413 163.216 49.5388C162.757 48.9719 159.779 45.048 159.361 44.4773C162.945 40.7692 165.757 36.0319 166.945 31.3627L167.028 31.1227L166.831 30.9148C165.757 29.5001 163.861 27.5291 162.455 26.4867L162.249 26.2679L162.041 26.3813C157.372 27.5291 152.632 30.2999 148.903 33.9226C148.309 33.4668 144.351 30.3721 143.82 29.956C146.288 25.56 147.752 20.4013 147.752 15.6799V15.0348L147.541 14.904C146.124 13.7894 143.82 12.4666 142.174 11.7681L141.924 11.6547L141.684 11.7761C137.528 14.1333 133.705 17.996 131.049 22.4506C130.383 22.172 125.591 20.1666 124.965 19.9119C125.591 17.4227 125.965 14.8292 126.009 12.2534C126.009 9.64402 125.669 7.13064 124.965 4.82512L124.885 4.54128L124.684 4.46115C123.052 3.74796 120.509 3.05328 118.632 2.8439L118.403 2.77473L118.247 2.94254C114.799 6.28667 112.09 11.0186 110.617 16.0481C109.913 15.9774 104.986 15.3413 104.229 15.172C104.229 10.0412 102.788 4.75067 100.301 0.641186L100.156 0.425375L99.9238 0.354698C99.0768 0.251517 98.0151 0.198226 96.9402 0.194824H96.732C95.6563 0.197848 94.5803 0.251139 93.7053 0.354698L93.4479 0.425375L93.341 0.641186C90.8665 4.75067 89.4503 10.0412 89.3411 15.22C88.6665 15.3413 83.6212 15.9774 82.9186 16.0481C81.4786 11.0186 78.749 6.25076 75.3251 2.91986L75.1146 2.73731L74.8224 2.77473C73.0079 3.05328 70.4238 3.74796 68.8746 4.39615L68.6267 4.46115L68.593 4.75067C67.8931 7.07848 67.5718 9.60282 67.5718 12.2534C67.5332 14.8027 67.9237 17.3758 68.5518 19.8601C67.8931 20.1228 63.0931 22.2079 62.4452 22.4506C59.741 17.996 55.8719 14.1027 51.7598 11.7761L51.4812 11.6547L51.3039 11.7681C49.6319 12.4454 47.2905 13.7894 45.9079 14.8719L45.6743 15.0348V15.7268C45.6743 20.3321 47.0932 25.5105 49.6319 29.956C49.085 30.3721 45.3931 33.2173 44.8557 33.644C41.1691 30.0572 36.4345 27.2653 31.7385 26.0627L31.5279 26.0215L31.3038 26.1613C29.905 27.2653 27.9918 29.1441 26.8357 30.5921L26.7359 30.7973L26.7877 30.9987C27.968 35.6653 30.6972 40.3746 34.304 44.1333C33.8826 44.6908 30.7811 48.8853 30.3559 49.3933C25.8091 46.8746 20.5412 45.4146 15.7624 45.4841H15.4786L15.3092 45.6958C14.2733 47.112 12.9546 49.3721 12.221 51.0385L12.1038 51.2865L12.221 51.5518C14.5545 55.7051 18.4784 59.5527 22.9477 62.2558C22.6691 62.9252 20.8224 67.382 20.5412 67.998C15.4786 66.7557 9.97066 66.7183 5.41595 68.0604L5.16915 68.1307L5.09053 68.3601C4.38527 69.9366 3.66905 72.4772 3.45059 74.3771L3.40259 74.6413L3.54395 74.808C6.92663 78.2152 11.6866 80.9459 16.6759 82.3773C16.5958 83.044 15.9707 87.9864 15.8611 88.6804C10.5958 88.7582 5.30105 90.1646 1.1825 92.5918L0.975759 92.7052L0.95724 92.989C0.842342 93.912 0.809082 94.9956 0.809082 96.1011C0.809082 97.2323 0.842342 98.3495 0.95724 99.2037L0.975759 99.4876L1.1825 99.6232C5.30105 102.071 10.5958 103.43 15.8611 103.501C15.9344 104.204 16.6759 109.287 16.7319 109.993C11.6866 111.488 6.97047 114.193 3.61727 117.613L3.45059 117.829L3.50237 118.118C3.78395 119.959 4.46766 122.576 5.09053 124.131L5.22659 124.339L5.45034 124.409C10.0625 125.701 15.5413 125.665 20.5824 124.409C20.9026 125.04 22.7931 129.511 23.0799 130.193C18.6451 132.852 14.7623 136.693 12.385 140.855L12.2784 141.074L12.385 141.322C13.0959 142.974 14.4158 145.308 15.5198 146.769L15.6827 146.931H15.9344C20.6558 147.051 25.9758 145.576 30.5279 143.024C30.9652 143.625 34.0546 147.628 34.465 148.186C30.8824 151.865 28.1264 156.603 26.9026 161.243L26.8357 161.485L26.9891 161.734C28.1264 163.169 29.9371 164.997 31.3439 166.133L31.596 166.298L31.8333 166.224C36.4345 165.045 41.1971 162.329 44.9373 158.724C45.4971 159.144 49.5797 162.245 50.1213 162.667C47.6692 167.193 46.2386 172.368 46.2386 177.068V177.56L46.4159 177.737C47.8718 178.829 50.1213 180.12 51.8304 180.884L52.0931 180.953L52.3119 180.831C56.4373 178.537 60.3453 174.605 63.0519 170.079C63.6838 170.363 68.0597 172.136 68.7053 172.415C68.0597 174.893 67.6999 177.436 67.6999 179.974C67.6999 182.565 68.0597 185.18 68.7597 187.51L68.8425 187.721L69.0413 187.819C70.6971 188.503 73.164 189.227 75.0413 189.503L75.3251 189.545L75.5077 189.37C78.9346 185.983 81.6558 181.246 83.0384 176.3C83.741 176.347 88.801 177.068 89.5172 177.139C89.6318 182.357 91.0718 187.65 93.4759 191.751L93.6373 191.967L93.8611 192.003C95.6786 192.256 98.3504 192.256 100.017 192.003L100.301 191.967L100.434 191.751C102.919 187.65 104.35 182.357 104.435 177.139C105.112 176.997 109.913 176.347 110.541 176.3C111.957 181.276 114.653 186.04 118.174 189.388L118.33 189.584L118.612 189.545C120.435 189.227 123.052 188.579 124.601 187.933L124.851 187.797L124.885 187.565C125.517 185.227 125.965 182.639 125.965 180.05C125.893 177.488 125.517 174.893 124.885 172.415C125.517 172.136 130.153 170.152 130.798 169.868C133.476 174.319 137.393 178.201 141.481 180.581L141.757 180.672L141.924 180.603C143.591 179.92 145.927 178.568 147.33 177.436L147.615 177.276V176.631C147.615 171.988 146.132 166.849 143.695 162.384C144.26 161.962 148.069 158.986 148.621 158.568C152.353 162.174 157.153 164.923 161.695 166.133L162.041 166.201L162.208 166.058C163.612 164.923 165.549 163.029 166.601 161.6L166.736 161.431L166.664 161.188C165.549 156.519 162.799 151.784 159.175 148.051C159.59 147.503 162.664 143.443 163.082 142.893C167.684 145.456 172.954 146.858 177.676 146.803H177.968L178.09 146.589C179.247 145.172 180.538 142.813 181.226 141.183L181.299 140.943L181.184 140.715C178.987 136.617 175.08 132.779 170.664 129.988C170.85 129.342 172.716 124.901 172.954 124.277C177.997 125.524 183.445 125.573 188.069 124.243L188.309 124.204L188.393 123.946C189.132 122.308 189.799 119.784 190.06 117.904V117.686L189.924 117.472C186.591 114.027 181.809 111.331 176.877 109.91C176.976 109.238 177.549 104.459 177.676 103.79C182.965 103.644 188.239 102.261 192.32 99.8315L192.58 99.6984L192.612 99.4566C192.675 99.0004 192.72 98.4856 192.748 97.9417ZM147.197 136.904L148.621 139.157L149.927 141.428L151.684 139.157L152.143 138.592L147.197 136.904ZM76.6638 157.775C76.5905 157.436 76.4544 157.164 76.0387 156.975L73.0079 155.857L72.3227 157.775L72.08 158.475L72.06 158.519L74.8224 159.553C75.5799 159.888 76.3119 159.215 76.5746 158.475C76.6638 158.272 76.7413 158.019 76.6638 157.775ZM100.372 165.829L99.4343 163.519L98.4864 161.019L97.664 163.519L96.8533 165.983L100.372 165.829ZM133.205 155.977C133.205 155.253 133.02 154.608 132.676 153.983C131.674 152.117 129.299 151.516 127.448 152.579C126.142 153.279 125.476 154.608 125.476 155.977C125.517 156.603 125.669 157.303 126.038 157.893C126.142 158.079 126.268 158.272 126.455 158.475C127.617 159.862 129.666 160.186 131.241 159.269C131.674 159.055 132.02 158.774 132.298 158.475C132.877 157.775 133.205 156.836 133.205 155.977ZM159.143 132.373L150.314 127.511L149.184 129.545L159.779 135.458L163.861 128.141L162.041 127.167L159.143 132.373ZM42.5105 126.308L32.1251 132.373C32.497 133.1 32.8984 133.953 33.3531 134.655L43.76 128.574C43.2517 127.657 42.9652 127.167 42.5105 126.308ZM49.1746 135.993L43.5491 140.855L46.4159 132.521C45.9079 131.808 45.6743 131.31 45.1426 130.654L35.0599 137.496C35.5104 138.172 36.0626 138.797 36.5411 139.498L42.6039 135.297L39.7598 143.693C40.2519 144.248 40.7492 145.097 41.4451 145.663L50.7733 137.663C50.257 137.109 49.6319 136.617 49.1746 135.993ZM55.3412 145.201L48.9399 152.797L46.945 151.068L53.5652 143.693C52.5157 142.722 51.7159 141.846 50.7 140.943L52.1744 139.464C54.6946 141.846 56.9131 143.693 59.6945 145.933L58.4185 147.563C57.4052 146.769 56.3613 146.005 55.3412 145.201ZM62.861 150.893C64.4998 151.784 66.1012 152.715 67.8931 153.563L68.9679 151.784C66.4867 150.502 64.1585 149.037 62.0718 147.589L55.2263 157.636C57.8225 159.355 60.1945 160.789 62.861 162.329L63.965 160.555L58.445 157.303L60.3091 154.682L63.965 156.881L65.0304 155.172C63.8558 154.527 62.6319 153.781 61.3507 152.997L62.861 150.893ZM78.9346 157.775V158.433C78.749 160.045 77.6559 161.682 75.8826 161.888L76.2931 167.519C75.4706 167.331 74.5412 167.057 73.664 166.685L73.5691 161.388L71.1892 160.37L69.2597 165.045C68.4785 164.786 67.6999 164.537 66.9372 164.163L69.3826 158.475L69.6743 157.775L71.6639 153.081L77.0826 155.172C78.2879 155.603 78.8423 156.674 78.9346 157.775ZM89.3332 157.893L88.4544 165.243L84.924 157.182C84.0959 157.021 83.58 156.808 82.7466 156.674L79.9758 168.56C80.833 168.789 81.6558 168.881 82.5383 169.035L84.0226 161.734L87.601 169.868C88.4132 169.99 89.3332 170.246 90.2784 170.221L91.6039 157.946C90.9077 157.907 90.0827 158.019 89.3332 157.893ZM101.955 163.519L104.572 169.868C103.716 169.904 102.919 169.99 102.153 170.079L101.345 168.027L96.1118 168.172L95.5119 170.319C94.6759 170.246 93.8958 170.221 93.0651 170.221L95.3226 163.519L96.9293 158.433L97.0079 158.272L99.6759 158.152L99.8119 158.475L101.955 163.519ZM113.508 156.065C109.989 156.836 107.281 157.477 103.791 158.019L104.115 160.045C105.405 159.841 106.585 159.688 107.948 159.516L109.708 169.279L112.298 168.789L110.197 159.055C111.53 158.724 112.757 158.388 114.083 158.079L113.508 156.065ZM116.372 155.045L120.374 166.472C121.153 166.201 121.989 165.964 122.779 165.62L118.896 154.245C117.83 154.608 117.341 154.753 116.372 155.045ZM134.567 152.969C135.08 153.87 135.33 154.912 135.372 155.977C135.372 156.808 135.194 157.66 134.85 158.433C134.288 159.553 133.457 160.555 132.298 161.224C129.476 162.874 125.825 161.888 124.112 158.986C124.052 158.819 123.976 158.636 123.861 158.433C123.517 157.66 123.35 156.808 123.279 155.977C123.35 153.839 124.393 151.865 126.309 150.756C129.176 149.131 132.877 150.103 134.567 152.969ZM139.008 141.615L144.008 147.005L135.615 144.529C134.916 145.06 134.448 145.246 133.831 145.784L141.135 155.603C141.757 155.117 142.403 154.527 142.987 154.029L138.554 148.123L147.031 150.674C147.615 150.17 148.445 149.6 149.017 148.881L140.562 139.941C140.112 140.431 139.591 141.074 139.008 141.615ZM145.831 134.152L157.85 138.1C157.569 138.456 157.345 138.797 157.091 139.157C156.882 139.428 156.632 139.701 156.465 140.053L154.361 139.295L151.08 143.393L152.279 145.272C151.788 145.829 151.236 146.433 150.612 147.051L145.85 139.157L144.091 136.248L145.831 134.152ZM100.903 29.956C102.216 30.0187 103.435 30.1653 104.664 30.3388L104.017 27.8228L103.205 25.2293L101.987 27.8228L100.903 29.956ZM73.8666 31.0758C74.028 33.2173 75.9264 34.7786 77.9867 34.6025C80.0197 34.3931 81.5387 32.7694 81.5387 30.724C81.612 30.6227 81.5387 30.5051 81.5387 30.3721C81.361 28.22 79.5091 26.7093 77.3638 26.9119C75.3251 27.0627 73.7906 28.6773 73.8666 30.724V31.0758ZM115.093 29.956L117.799 30.8294C118.538 31.0414 119.517 29.8811 119.517 28.872C119.517 28.3905 119.351 27.9641 118.705 27.8228C117.705 27.4361 117.02 27.2653 115.929 26.9894L115.372 28.872L115.093 29.956ZM60.9346 33.9668L61.2679 34.5345L62.4917 36.6506L65.0304 35.3172C65.2678 35.1985 65.4023 34.9015 65.4477 34.5345C65.4972 33.3881 64.6691 31.8359 63.4653 32.5601C62.528 33.0506 61.9573 33.3881 60.9346 33.9668ZM71.6639 31.2894V30.724C71.6011 27.6119 73.9864 25.0505 77.1211 24.7999C80.4347 24.4772 83.377 26.9119 83.6559 30.2428V30.724C83.6559 33.8319 81.3092 36.4892 78.1212 36.7814C74.9026 37.0652 71.9451 34.6414 71.6639 31.2894ZM98.9026 34.0518C97.8931 34.0412 97.4267 34.0412 96.4372 34.0412L99.4343 27.8228L102.153 22.172L104.85 22.4506L106.268 27.8228L108.227 35.0413C107.32 34.872 106.615 34.7348 105.757 34.6853L105.06 32.4225C103.279 32.1466 101.669 32.06 100.017 31.9893L98.9026 34.0518ZM113.434 36.2734C112.465 35.9919 111.749 35.8721 110.684 35.5678L112.648 28.872L114.083 24.0988C116.153 24.6121 118.121 25.2841 120.091 25.9255C121.205 26.2679 121.801 27.5291 121.916 28.872C121.989 30.696 121.082 32.6772 119.241 33.0918L119.957 38.4894C119.093 38.1307 118.454 37.8627 117.497 37.4867L116.872 32.7694L114.563 32.06L113.434 36.2734ZM58.284 34.5345L57.6146 33.3318C59.3744 32.2146 61.2679 31.2452 63.0931 30.2693C65.2413 29.084 68.2733 31.9561 68.0597 34.5345C68.0197 34.9892 67.8931 35.4011 67.6239 35.8199L72.0173 39.0159C71.1892 39.404 70.5625 39.7347 69.5746 40.1652L65.7266 37.3521L63.6037 38.4894L65.8638 42.2266C64.9892 42.7841 64.4571 43.1306 63.4343 43.7267L58.284 34.5345ZM88.9239 24.5894L89.9867 34.4358L92.5719 34.1652L91.5597 24.3906L95.4704 24.1506L95.3226 21.9558C90.9546 22.2079 89.1559 22.3841 84.8333 23.0292L85.1213 25.1121L88.9239 24.5894ZM126.727 41.8547L129.341 36.82L136.396 33.5412C135.653 33.0079 134.85 32.636 134.107 32.1466L129.247 34.3599L128.35 29.084C127.336 28.6025 126.727 28.3905 125.669 27.9641L127.082 35.6385L124.465 40.612L126.727 41.8547ZM96.7157 115.303C107.236 115.303 115.788 106.764 115.788 96.2455C115.788 85.727 107.236 77.1778 96.7157 77.1388C86.1999 77.1388 77.6559 85.727 77.6559 96.2455C77.6559 106.764 86.1999 115.303 96.7157 115.303ZM96.7157 113.443C87.2571 113.443 79.5306 105.683 79.5306 96.2455C79.5306 86.7403 87.2571 79.0188 96.7157 79.0188C106.236 79.0188 113.893 86.7403 113.893 96.2455C113.893 105.725 106.197 113.443 96.7157 113.443ZM144.508 115.089C145.299 115.602 146.216 116.224 147.049 115.935C147.615 115.764 148.101 115.144 148.413 114.027C152.143 101.383 152.143 90.5841 148.413 78.0916C148.184 77.3078 147.82 76.4978 147.164 76.2053C146.5 75.9668 145.664 76.2404 144.468 77.0515L120.038 93.6622C119.093 94.2975 118.612 95.1645 118.612 96.0607C118.612 96.9511 119.093 97.8181 120.038 98.4433L144.508 115.089ZM139.121 62.2244C139.153 61.7195 138.842 61.0811 138.134 60.3849C129.06 50.7838 119.738 45.4146 106.954 42.3747C106.236 42.188 105.405 42.0187 104.85 42.5081C104.279 42.9666 104.115 43.8521 104.229 45.1773L106.336 74.7532C106.403 75.8738 106.908 76.7628 107.656 77.2129C108.476 77.6778 109.457 77.5916 110.476 77.101L137.112 64.2453C137.965 63.8315 138.937 63.3798 139.121 62.4693C139.121 62.4123 139.153 62.3393 139.121 62.2244ZM54.4266 62.6961C54.5385 63.5866 55.5518 64.0405 56.4373 64.4562L83.0384 77.3796C84.0959 77.8849 85.0797 77.8849 85.8825 77.4669C86.6319 76.9771 87.1172 76.1255 87.1838 74.9943L89.3332 45.4841C89.4503 44.0574 89.2493 43.2213 88.736 42.7841C88.1744 42.2999 87.341 42.436 86.5412 42.5841C73.7906 45.6508 64.4998 51.0385 55.3412 60.589C54.6012 61.4251 54.2573 62.1284 54.4266 62.6961ZM49.085 77.2481C48.2157 76.6853 47.2905 76.0439 46.5331 76.3799C45.9159 76.5658 45.4653 77.2129 45.1426 78.2625C41.4451 90.9511 41.4451 101.709 45.1426 114.232C45.3931 115.047 45.6743 115.86 46.4159 116.066C47.0225 116.318 47.9186 116.066 49.085 115.261L73.4973 98.6307C74.4025 98.0215 74.9543 97.1541 74.9543 96.2844C74.9543 95.3391 74.4025 94.5084 73.4973 93.8719L49.085 77.2481ZM54.8117 130.175C54.8117 130.68 55.1557 131.31 55.7986 131.98C64.9598 141.615 74.2359 146.977 86.9759 149.967C87.7904 150.214 88.5905 150.336 89.1559 149.893C89.7319 149.464 89.8959 148.579 89.7984 147.186C89.7984 147.141 87.632 117.613 87.632 117.613C87.5413 116.493 87.1172 115.639 86.333 115.188C85.5385 114.722 84.5491 114.722 83.4866 115.206L56.9131 128.141C55.9864 128.574 54.9811 129.06 54.8423 129.93C54.8423 129.988 54.8117 130.099 54.8117 130.175ZM104.779 149.464C105.229 149.819 105.968 149.923 107.104 149.638C119.812 146.589 129.132 141.204 138.216 131.672C138.757 131.045 139.351 130.399 139.175 129.683C139.008 128.995 138.424 128.373 137.184 127.79L110.541 114.86C109.531 114.383 108.549 114.383 107.736 114.808C106.954 115.303 106.476 116.141 106.403 117.311L104.249 146.803C104.229 147.77 104.115 148.87 104.779 149.464ZM48.5517 40.3081L56.4373 49.0921C57.5387 50.2758 58.7519 50.1307 60.3453 48.8853C70.3093 41.0681 83.0932 36.4454 96.7157 36.4454C110.353 36.4454 123.145 41.0519 133.205 48.8853C134.779 50.0468 135.957 50.2758 137.112 49.0921L145.003 40.3081C145.896 39.336 145.896 37.9988 144.184 36.5652C130.957 26.2679 114.632 19.9119 96.684 19.9119C78.8423 19.9119 62.2839 26.2679 49.2932 36.6121C47.5932 37.9988 47.6692 39.336 48.5517 40.3081ZM166.32 121.076L154.954 117.196C154.361 116.975 152.809 116.975 151.997 118.974C142.82 140.986 121.455 156.048 96.7157 156.048C71.9451 156.048 50.1863 140.639 41.4023 118.631C40.7492 116.975 39.1531 116.975 38.5492 117.196L27.2465 121.076C26.0197 121.519 25.2838 122.607 25.9267 124.178C37.0279 152.508 64.6343 172.508 96.7157 172.508C128.788 172.508 156.52 152.37 167.659 124.058C168.236 122.576 167.538 121.519 166.32 121.076ZM25.393 115.009L36.7293 111.717C37.7918 111.404 38.6663 110.29 38.5824 108.904C34.5119 87.7895 39.6827 70.6724 52.0599 56.9505C53.312 56.06 53.4451 54.2266 52.2492 52.9748L44.0079 44.6908C43.2078 43.7747 41.7519 43.7747 40.5024 45.048C24.7078 61.6726 16.7319 87.1856 22.5826 113.269C22.9053 114.519 23.8959 115.438 25.393 115.009ZM153.184 44.9346C152.072 43.5706 150.227 43.7747 149.695 44.7241L141.481 52.9748C140.279 54.2266 140.396 56.06 141.643 56.9505C154.039 70.6724 159.219 87.7533 155.153 108.904C155.063 110.29 155.935 111.404 157.017 111.717L168.372 115.009C169.885 115.438 170.85 114.519 171.175 113.225C177.017 87.1856 169.017 61.5864 153.184 44.9346ZM96.9293 107.756C90.7293 107.756 85.5718 102.6 85.5718 96.3173C85.5718 91.3393 88.801 86.972 93.5904 85.5188C93.6373 85.0033 93.7703 82.412 93.7703 82.412H99.5387C99.5387 82.412 99.6759 84.7973 99.7386 85.3105C104.736 86.5578 108.367 91.0981 108.367 96.3173C108.367 102.6 103.205 107.756 96.9293 107.756Z" fill="#CF005D"/>
</svg>
